<?xml version="1.0" encoding="UTF-8"?>
<svg width="40px" height="40px" viewBox="0 0 40 40" version="1.1" xmlns="http://www.w3.org/2000/svg" xmlns:xlink="http://www.w3.org/1999/xlink">
    <!-- Generator: Sketch 64 (93537) - https://sketch.com -->
    <title>cauda_favicon_black</title>
    <desc>Created with Sketch.</desc>
    <g id="cauda_favicon_black" stroke="none" stroke-width="1" fill="none" fill-rule="evenodd">
        <rect id="Pill" stroke="#000000" stroke-width="2" fill="#FFFFFF" x="2" y="2" width="36" height="36" rx="18"></rect>
        <path d="M20.3145374,29 C22.3497797,29 24.0519824,28.4295775 25.260793,27.4661972 C26.3339207,26.6422535 27,25.5267606 27,24.5253521 C27,23.5239437 26.3215859,22.8394366 25.322467,22.8394366 C24.6933921,22.8394366 24.2493392,23.0802817 23.5955947,23.7774648 C22.7198238,24.9183099 21.7577093,25.4507042 20.5612335,25.4507042 C18.3162996,25.4507042 17.0828194,23.7647887 17.0828194,20.6464789 L17.0828194,19.1507042 C17.0828194,16.2225352 18.3409692,14.5366197 20.5612335,14.5366197 C21.7453744,14.5366197 22.6088106,15.0690141 23.5339207,16.2352113 C24.1753304,16.9070423 24.6563877,17.1605634 25.3101322,17.1605634 C26.2969163,17.1605634 26.9753304,16.4887324 26.9753304,15.4746479 C26.9753304,14.6887324 26.4819383,13.7 25.6678414,12.8887324 C24.4590308,11.684507 22.5101322,11 20.3145374,11 C15.676652,11 13,13.9788732 13,18.9605634 L13,20.8366197 C13,26.0338028 15.6026432,29 20.3145374,29 Z" id="Path" fill="#000000" fill-rule="nonzero"></path>
    </g>
</svg>