<?xml version="1.0" encoding="UTF-8"?>
<svg width="120px" height="40px" viewBox="0 0 120 40" version="1.1" xmlns="http://www.w3.org/2000/svg" xmlns:xlink="http://www.w3.org/1999/xlink">
    <!-- Generator: Sketch 64 (93537) - https://sketch.com -->
    <title>cauda_logo</title>
    <desc>Created with Sketch.</desc>
    <g id="cauda_logo" stroke="none" stroke-width="1" fill="none" fill-rule="evenodd">
        <rect id="Pill" stroke="#0075DB" stroke-width="2" fill="#FFFFFF" x="1" y="1" width="118" height="38" rx="19"></rect>
        <path d="M21.3072468,28.3622835 C23.4019733,28.3622835 25.1539265,27.7909945 26.3980671,26.8261507 C27.5025593,26.0009554 28.1881061,24.8837679 28.1881061,23.8808382 C28.1881061,22.8779085 27.489864,22.1923616 26.4615436,22.1923616 C25.8140827,22.1923616 25.3570515,22.4335726 24.6841999,23.1318148 C23.7828327,24.2743929 22.7925983,24.807596 21.561153,24.807596 C19.2506061,24.807596 17.9810749,23.1191195 17.9810749,19.9960726 L17.9810749,18.4980257 C17.9810749,15.5654085 19.2759968,13.876932 21.561153,13.876932 C22.779903,13.876932 23.6685749,14.4101351 24.6207233,15.5781038 C25.2808796,16.2509554 25.7759968,16.5048616 26.4488483,16.5048616 C27.4644733,16.5048616 28.1627155,15.8320101 28.1627155,14.8163851 C28.1627155,14.0292757 27.654903,13.0390413 26.8170124,12.2265413 C25.5728718,11.0204866 23.5670124,10.3349398 21.3072468,10.3349398 C16.5338093,10.3349398 13.7789265,13.3183382 13.7789265,18.307596 L13.7789265,20.1865023 C13.7789265,25.3915804 16.4576374,28.3622835 21.3072468,28.3622835 Z M46.1558796,28.1210726 C47.3619343,28.1210726 48.1490436,27.4101351 48.1490436,26.3056429 C48.1490436,25.861307 48.0347858,25.3534945 47.8062702,24.642557 L43.9849811,13.4072054 C43.286739,11.3378695 42.3218952,10.5253695 40.4937702,10.5253695 C38.6656452,10.5253695 37.6754108,11.3505648 36.989864,13.4072054 L33.1558796,24.642557 C32.8638874,25.4931429 32.7496296,25.9755648 32.7496296,26.3945101 C32.7496296,27.4101351 33.536739,28.1210726 34.6793171,28.1210726 C35.7965046,28.1210726 36.3931843,27.5497835 36.8121296,26.0771273 L37.4849811,24.0077913 L43.3121296,24.0077913 L43.9722858,26.0771273 C44.3912311,27.5116976 45.0386921,28.1210726 46.1558796,28.1210726 Z M42.4615436,20.9736116 L38.3482624,20.9736116 L40.3160358,14.4101351 L40.5191608,14.4101351 L42.4615436,20.9736116 Z M60.3658405,28.3622835 C64.7965046,28.3622835 67.6402546,25.8866976 67.6402546,22.0400179 L67.6402546,12.7343538 C67.6402546,11.3632601 66.8404499,10.5253695 65.5328327,10.5253695 C64.2125202,10.5253695 63.4381061,11.3632601 63.4381061,12.7343538 L63.4381061,21.4941195 C63.4381061,23.5634554 62.2701374,24.807596 60.3658405,24.807596 C58.436153,24.807596 57.2935749,23.588846 57.2935749,21.4941195 L57.2935749,12.7343538 C57.2935749,11.3632601 56.5064655,10.5253695 55.1988483,10.5253695 C53.8785358,10.5253695 53.0914265,11.3632601 53.0914265,12.7343538 L53.0914265,22.0273226 C53.0914265,25.8740023 55.8590046,28.3622835 60.3658405,28.3622835 Z M80.6187702,27.9814241 C85.7222858,27.9814241 88.451778,24.9599398 88.451778,19.3105257 C88.451778,13.673807 85.7222858,10.6523226 80.6187702,10.6523226 L76.264278,10.6523226 C74.677364,10.6523226 73.8140827,11.4902132 73.8140827,13.0517366 L73.8140827,25.5820101 C73.8140827,27.1435335 74.677364,27.9814241 76.264278,27.9814241 L80.6187702,27.9814241 Z M79.9713093,24.642557 L78.0162311,24.642557 L78.0162311,13.9784945 L79.9713093,13.9784945 C82.8531452,13.9784945 84.1607624,15.6415804 84.1607624,19.3105257 C84.1607624,22.9921663 82.8531452,24.642557 79.9713093,24.642557 Z M105.886348,28.1210726 C107.092403,28.1210726 107.879512,27.4101351 107.879512,26.3056429 C107.879512,25.861307 107.765255,25.3534945 107.536739,24.642557 L103.71545,13.4072054 C103.017208,11.3378695 102.052364,10.5253695 100.224239,10.5253695 C98.396114,10.5253695 97.4058796,11.3505648 96.7203327,13.4072054 L92.8863483,24.642557 C92.5943561,25.4931429 92.4800983,25.9755648 92.4800983,26.3945101 C92.4800983,27.4101351 93.2672077,28.1210726 94.4097858,28.1210726 C95.5269733,28.1210726 96.123653,27.5497835 96.5425983,26.0771273 L97.2154499,24.0077913 L103.042598,24.0077913 L103.702755,26.0771273 C104.1217,27.5116976 104.769161,28.1210726 105.886348,28.1210726 Z M102.192012,20.9736116 L98.0787311,20.9736116 L100.046505,14.4101351 L100.24963,14.4101351 L102.192012,20.9736116 Z" id="Logo" fill="#0075DB" fill-rule="nonzero"></path>
    </g>
</svg>